<?xml version="1.0" encoding="utf-8"?>
<!-- Generator: Adobe Illustrator 27.3.1, SVG Export Plug-In . SVG Version: 6.00 Build 0)  -->
<svg version="1.1" id="Calque_1" xmlns:serif="http://www.serif.com/"
	 xmlns="http://www.w3.org/2000/svg" xmlns:xlink="http://www.w3.org/1999/xlink" x="0px" y="0px" viewBox="0 0 456 456"
	 style="enable-background:new 0 0 456 456;" xml:space="preserve">
<style type="text/css">
	.st0{fill:#3F944B;}
	.st1{fill:#FFFFFF;}
	.st2{fill:#507EA4;}
	.st3{fill:#416891;}
</style>
<rect x="-233" y="-115" class="st0" width="881" height="778"/>
<path class="st1" d="M68.8,201.2c0.4-0.4,0.9-0.9,1.3-1.3c0.2,0,0.4-0.1,0.4-0.4c0.2-0.2,0.4-0.4,0.7-0.7c0.7,0,1.1-0.4,1.1-1.1l0,0
	c0.3,0.1,0.4,0,0.5-0.3c0.8-0.8,1-1.5,0.6-2.7c-1.6-12.4-0.1-25.2-0.6-37.8c-0.1-3.1-4.2-2.5-6.2-3.8c-1.6-0.2-6-3.7-6-0.9
	c0.2,16.8-1.6,6.9,5.6,17.1c1.3,7.5,0.4,15.5,0.6,23.1c0.3,7.7-10.9,9.1-15.3,4.5c-3.2-4.8-0.9-15.2-1.5-21.2
	c-0.3-4.3,0.3-9.2,4.8-11.1c0.9-0.4,1.2-1,1.2-2c-0.1-4-0.1-8.1,0-12.1c-0.7-4.3-10.1-2.9-11.9-7.9c-3.9-8.6,8.3-10.2,13.9-12.6
	c8-3.1,16.1-5.9,24-9.2c11.5-4.3,23.1-8.8,34.7-13c7.2-3,14.8-7,22.5-3.1c18.2,7.2,36.7,13.9,54.9,21c7.9,3.6,16.6,5.4,24.1,9.7
	c2.7,2.2,2.5,7.4-0.6,9.3c-4.3,2.5-9.2,3.8-13.8,5.7c-3.8,1.4-7.4,3.1-11.3,4.2c-3,0.2-1.6,4.4-1.9,6.5c0,9.1,0,18.2,0.2,27.3
	c0,2.3-0.9,3.7-2.8,4.9c-3.9,3-7.2,6.9-10.7,10.4c-4.4,3.5-10.1,4.4-15.3,5.9c-8.8,2-17.8,3-26.8,3.5c-7.7,0.2-15.4-0.4-23.2-0.4
	c-5.5-0.4-11.4-1.4-16.3,1.8c-6.7,3.9-1,12.2-3.9,17.9c-3.3,8.6-13.8,3.3-17.9-1.9c-3.5-3-5-12.5-10.7-10.5c-1.5,0.7-3.4,1-4.1,2.8
	c-26.1,50.6,6,112.2,62.5,119.3c16.9,1.9,34.7-0.9,49.2-9.4c1.5,0.3,2,1.8,2.9,2.8c0.4,0.5,0.4,0.9-0.2,1.1
	c-5,2.7-10.7,4.9-15.7,6.6C72,368.8,8.7,267.4,68.5,201.5C68.7,201.5,68.8,201.4,68.8,201.2L68.8,201.2z M110.6,139.9
	c1.7,0.2,3.3-0.6,5-0.5c0.3,0,0.5-0.1,0.7-0.4c1.1-0.2,2.6,0.3,3.6-0.2c2-0.2,4.1-0.4,6.1-0.6c0.1,0.2,0.3,0.2,0.4,0
	c2.9,0.2,9-2.1,7.4,3.2c-16.9,2.7-34.3,3.6-51.3,5.8c-1.3,0.4-13.9,0.9-10.7,2.7c19,7.4,38.1,15.2,57.3,21.8
	c7.9,1.8,16.6-4.8,24.2-6.7c9.1-3.6,18.5-6.6,27.4-10.7c6.1-2.4,12.7-4.5,18.6-7.2c0.5,0,1,0,1.3-0.4c0.2,0,0.3,0,0.4-0.2
	c4.7-1.4,9.2-3.6,13.8-5.5c0.4-0.2,1-0.4,1-1c0-0.7-0.6-0.8-1-1.1c-12.4-5.3-25.3-9.6-37.8-14.6c-14-5.4-28.2-10.5-42.2-16
	c-8-1.6-15.1,4.2-22.6,6.2c-21,8.5-42.6,15.5-63.2,24.7c-3.2,1.9,8,4.9,9.3,5.4c1.7,0.4,3.4,0,5.1-0.1c14.8-1.5,30.5-2.3,44.9-4.6
	c0.2,0,0.4,0,0.6,0c0.1,0.2,0.3,0.2,0.4,0C109.6,139.9,110.1,139.9,110.6,139.9z M185.8,192.3c-0.3-11.4,0.6-24-0.3-34.8
	c-12.8,4.6-25.5,9.7-38.2,14.5c-7.5,2.6-15.7,7.6-23.3,2.8c-14.8-5.5-29.6-11.3-44.4-16.8c-1.3-0.6-2-0.3-2,0.8
	c0.1,5.7,0.1,11.4,0.2,17.1c0.1,5.1,0,10.3,0,15.4c-0.2,4.5,4.6,5.9,7.7,7.8c23.8,10.9,51.5,11.2,76.7,5.8
	c6.1-1.8,21.8-6.1,23.6-12.4C185.9,192.4,185.8,192.4,185.8,192.3L185.8,192.3z M77.4,200.5c-1.1-1.4-14.7,14.1-12.4,14.1
	c9.6,1.7,9.9,16.3,20,17.4c2.5,0.1,2.9-2.8,2.7-4.8c-1.9-7.3,0.6-14.9,7.6-18.2c0.6-0.1,0.5-0.8-0.1-0.9c-5.8-1.7-11.5-4.1-16.6-7.3
	C78.3,200.6,78,200.1,77.4,200.5L77.4,200.5z M61.7,182.4c-0.5-4.2,2.6-15.7-5-13.4c-0.9,0.5-1.9,1.2-1.9,2.3
	c0.5,2.8-1.4,24.2,1.2,23.1c1.6-0.2,5.6,1.1,5.8-1.2C61.6,189.5,61.7,186,61.7,182.4z"/>
<path class="st1" d="M189.3,211.3c16.5,1.4,43.2-3.8,56.7,5.3c10.8,8.4,8.9,27.3-3.4,33.5c-1.5,0.6-1.1,1.7,0.4,1.7
	c10.5,2.6,16.1,13.7,14.2,23.9c-2.4,22.1-27.9,22-45,21.4c-7.7,0.2-15.3,0-23,0.1c-2,0.5-0.5-7.6-1-9.1c0.3-0.2,0.1-0.5,0.2-0.8
	c2.6-1,7.4-0.1,7.8-3.8c0-19.9,0-39.7,0-59.6c0-1.1-0.2-1.3-1.4-1.4c-1.4-0.5-5.8,0.6-6-1.1c0.2-3.3-0.2-6.7,0.3-9.9
	C189.3,211.5,189.3,211.5,189.3,211.3L189.3,211.3z M214,223.1c-1.7-0.4-2.1-0.1-2.1,1.1c0,7.1,0,14.2,0,21.3c0,1.1,0.3,1.4,1.3,1.3
	c8.3-0.3,21.8,1.3,23.6-9.6c1.3-0.8,0.4-6.3-0.2-7.7c-3.9-8.1-14.6-6.2-22-6.5C214.4,222.9,214.2,222.9,214,223.1L214,223.1z
	 M211.8,271.6C211.8,271.6,211.9,271.6,211.8,271.6c0.1,4.1,0.1,8.2,0.1,12.3c0,1.4,0.2,1.7,1.6,1.6c6.9-0.2,14,0.4,20.6-2
	c6.4-2.7,8-10,6.5-16.1c-1.4-6-7.4-9.1-13-9.3c-4.9-0.4-9.9-0.1-14.9-0.1C210.8,257.5,212.3,269.7,211.8,271.6L211.8,271.6z"/>
<path class="st1" d="M283.6,211.3c9.2,0.1,18.3,0.1,27.5,0.1c1,0,1.7,0.4,1.9,1.2c0.2,1.1,1,1.8,1.2,2.9c8,22.3,15.3,45.6,24.2,67.4
	c-0.5,0.6,0.1,1.1,0.2,1.7c0.5,2.8,5.3,1.4,7.4,2c1.4,0.5,0.2,7.9,0.5,9.8c0,0.5-0.2,0.8-0.8,0.8c-10.3,0-20.7,0-31,0
	c-0.9,0-1.4-0.5-1.4-1.4c0.5-1.8-1.1-8.8,1-8.9c11.3,0.1,6.5-4.1,4.6-11.7c-0.2-0.6-0.8-0.8-1.4-0.8c-9.1,0-18.3,0-27.4,0
	c-2.1,0-2.1,0.1-2.7,2.1c-0.4,1.4-0.9,2.7-1.4,4.1c-2.8,7.1-1.1,5.3,5,6c0.8,0,1.1,0.2,1.1,1.1c-0.5,1.8,1.1,9.9-1.1,9.5
	c-9.3,0-18.6,0-27.8,0c-1.3,0-0.8-0.9-0.8-1.5c0.5-0.7,0.5-1.4,0.1-2.1c0.9-2.5-1.7-7.5,2.6-7c7.1,1.2,7.6-13.1,10.3-17.8
	c4.2-12.1,8.3-24,12.5-36.2c2.7-11.1,7.3-10.2-3.9-10.8c-1.5,0.1-0.3-8.4-0.7-10C283.4,211.7,283.5,211.4,283.6,211.3L283.6,211.3z
	 M303.2,262.9L303.2,262.9c3.6,0,7.2,0,10.8,0c1.4,0,1.6-0.5,1.2-1.8c-3.4-9.9-6.3-19.9-9.5-29.7c-0.2-0.6,0-1.3-0.5-1.9
	c-1-1-0.2-2.8-1.4-3.5c-0.5-0.1-0.6,0.2-0.8,0.6c-3.8,11.6-7.6,23.1-11.4,34.7c-0.5,1.4-0.3,1.7,1.2,1.7
	C296.3,262.9,299.7,262.9,303.2,262.9L303.2,262.9z"/>
<path class="st1" d="M414.4,271.2c1.3,0.4,4.2-0.7,4.4,1.1c0,6.7,0,13.4,0,20c-1.1,4.5-16.3,6-20.6,6.4
	c-20.5,1.8-38.8-6.5-43.8-27.8c-8.3-40.5,13.3-70.1,56.2-58.5c2.2,1.1,7.2,1.5,7,4.5c0,6.3,0,12.5,0,18.8c0,0.8-0.4,1.3-1.3,1.3
	c-3.8,0.2-7.7,0.5-11.4,0.9c-0.5-0.3-0.4-0.8-0.4-1.3c-0.3-8.6,2.5-13.7-8.7-13.9c0-0.3-0.4-0.4-0.4-0.1
	c-16-1.7-25.6,10.2-26.5,25.3c-2.1,15.9,2.4,38.4,22.3,38.5c0.1,0.1,0.2,0.2,0.4,0c15.7,0.2,14.3-1.2,14.4-15.3
	c0-0.5,0.4-0.7,0.8-0.5C409.3,270.9,412,270.8,414.4,271.2L414.4,271.2z"/>
<path class="st1" d="M214.7,322.6c1.1-1.8-1.5-9.9,1.2-10.6c2.1-0.8,4.8,0.3,5,2.7c1.9,9.3-2.4,33.1-16,23.7c-0.5-0.7-1.2-0.2-1.7,0
	c-4.1,2.2-8.9,0.5-10.2-3.9c-2.6-6.4-2.1-12.9-1.7-19.6c-0.3-4.3,3.3-6.2,6.3-2.9c0.9,4.3-1.5,8.9-0.2,13.3c0.2,2,0.8,11.1,4,6.6
	c0.4-1,0.5-2.1,0.5-3.2c0.7-4.1,7.1-2.3,6.3,1.7c-0.1,0.6,0,1.1,0.5,1.5c0.1,0.1,0.4,0.3,0.2,0.5c-0.7,0.7,0,1.1,0.4,1.4
	C213.3,335.9,214.4,325.8,214.7,322.6L214.7,322.6z"/>
<path class="st1" d="M265.8,309.8c9.5,0,10.8,10.4,3.7,15.1c-0.9,0.7-0.8,1.3,0.1,2c3.2,2.6,6.1,5.8,8.3,9.1
	c-0.6,3.3-4.8,4.5-6.7,1.5c-2.3-2.7-4.6-5.3-7.4-7.5c-0.5-0.5-2.1-2.2-2.2-0.5c-0.3,3.5-0.2,7.2-1.1,10.6c-0.9,2.8-6.7,2.6-5.9-1
	C255.4,330,253.4,311,265.8,309.8L265.8,309.8z M262.5,320.6c-0.2,2.9,6.4-2.9,5.2-4.3C265.7,314.7,262.7,318.7,262.5,320.6z"/>
<path class="st1" d="M226.8,328.8c-7-26.1,26.2-30,22.6-5.1c-0.6,0.5-0.4,1.1-0.4,1.7c-1.3,7.4-10.2,14.4-17.3,10.2
	c0.1-0.4-0.2-0.9-0.5-0.3c-1-0.2-0.1-1.2-1.3-1.1c0.6-1.1-1.2-1.5-1.3-2.5c-0.3-0.9-1.1-1.5-1.1-2.5
	C227.5,328.8,227.1,328.8,226.8,328.8L226.8,328.8z M240.7,328.5c2.7-2.4,4-12.2,0.5-14.4c-8.2-4-9.6,6.9-8.6,12.6
	c-0.2,3.9,4.3,5.2,6.8,2.9h0C240.2,329.6,240.7,329.3,240.7,328.5L240.7,328.5L240.7,328.5z"/>
<path class="st1" d="M307.4,321.3c-0.2-3.2,0.7-6.3,0.6-9.5c-0.2-1.5-0.2-4,1.6-4.4c12.3-1.8,24.7,11.7,14.5,22.3
	c-3.7,3.5-9.1,5.3-14,6.5C304.1,335.7,308.3,325.3,307.4,321.3L307.4,321.3z M313.6,326.3c0.1,0.8-0.4,2.6,1,1.8
	c3.9-1.4,8.5-4.9,6.6-9.8c-1-2.1-2.8-3.1-4.8-3.9c-2.1-0.8-2-0.8-2.3,1.4C313.5,319.4,314.1,322.9,313.6,326.3L313.6,326.3z"/>
<path class="st1" d="M290.6,310.7c-0.5,4.6-0.9,9.5-1.5,14.1c-0.1,0.9,0.3,1.2,1.3,1c3.3,0,10.9-3.5,11.8,1.3
	c0.3,4.9-5.5,3.4-8.5,4.6c-3.1,0-11.3,4-11.4-1.4c0.3-6.6,1.4-13.2,1.9-19.8C284,306,291.7,305,290.6,310.7L290.6,310.7z"/>
<path class="st1" d="M226.8,328.8c0.3,0,0.6,0,0.6,0.4c0,1,0.9,1.6,1.1,2.5c0.1,1,1.9,1.4,1.3,2.5
	C228.3,332.7,227.2,330.9,226.8,328.8L226.8,328.8z"/>
<path class="st1" d="M262.4,293.6c0.4,0.7,0.5,1.4-0.1,2.1C262.3,294.9,262.2,294.2,262.4,293.6z"/>
<path class="st1" d="M249,325.4c-0.1-0.6-0.3-1.2,0.4-1.7C249.5,324.3,249.5,324.9,249,325.4z"/>
<path class="st2" d="M72.3,197.7c0,0.7-0.5,1.1-1.1,1.1C71.5,198.3,71.9,198,72.3,197.7z"/>
<path class="st1" d="M229.9,334.2c0.7,0,0.8,0.1,0.8,0.7C230.4,334.7,230.1,334.5,229.9,334.2z"/>
<path class="st3" d="M188.4,287.2c-0.1,0.3,0.1,0.6-0.2,0.8C187.9,287.7,187.8,287.4,188.4,287.2z"/>
<path class="st1" d="M157.9,308.3c-0.4-1.3-0.7-2.6-1.4-3.8c-0.1,0-0.3,0-0.4,0c-0.1,0.2-0.2,0.2-0.4,0.2c-0.1,0.1-0.1,0.1-0.2,0.2
	c-5.9,6-13.9,10-20.7,15.1c-2.5,2.2-1.4,6.2-4.4,8.2c-6.7,2.5-1.2-15.9,0.1-18.2c0.1-0.9,0.3-1.8,0.8-2.5c0.3-1.6,0.8-3.2,1.5-4.6
	c0.5-1.9,1.2-3.9,1.7-5.7c0.7-4.1,1.5-8.8-0.6-12.7c-2-3.5-6.4-4-8.9-6.9c-4.2-4.9-7-10.8-10.4-16.3c-0.5-1.6,3.4-3.6,4.2-5.3
	c1.9-2.4,2.5-5,3.1-7.7c0.6-14.9,6.1-11.3,17-8.6c3.9,0.5,8.1-2.1,11.2,1.6c0.9,1.1,1.9,2.4,3.5,2.9c0.3,0.1,0.5,0.5,0.7,0.7
	c0.1,0,0.3,0,0.4,0c2-5.4,1-4.6-2.9-8.4c-3.4-3.4-8.5-1.7-12.7-1.6c-8.3-4.5-22.3-4.3-21.3,8.3c-0.8,1.4-0.2,3-0.5,4.6
	c-0.6,0.4-0.3,1.1-0.4,1.8c-0.2,0.5-0.6,0.9-0.6,1.5c-0.5,0.4-1,0.8-1,1.5c-7.9,6.8-6.1,10.5-0.7,18.2c3.4,5.8,6.9,12.7,13.8,14.9
	c4.5,2.5,0.8,12.9-0.6,16.8c-2.4,7.6-11.1,27-0.5,31c1.9,0.5,3.3-0.6,5-0.5c0.5,0.3,0.8-0.2,0.8-0.8c2.3-1.4,4-3.8,4.1-6.6
	c0.2-3.5,8.9-6.4,11.6-9.1C151.2,314.1,157.4,311,157.9,308.3L157.9,308.3z"/>
<path class="st1" d="M231.2,335.2c0.2-0.5,0.6-0.1,0.5,0.3C231.5,335.5,231.3,335.5,231.2,335.2z"/>
<path class="st2" d="M157.6,343.3c0.1-0.5,0.4-0.4,0.7-0.4C158.2,343.1,158,343.3,157.6,343.3z"/>
<path class="st1" d="M283.6,211.3c-0.1,0.1-0.2,0.3-0.2,0.4C283.2,211.4,283,211.1,283.6,211.3z"/>
<path class="st1" d="M395.5,222.5c0-0.3,0.4-0.2,0.4,0.1C395.7,222.7,395.6,222.7,395.5,222.5z"/>
<path class="st2" d="M72.8,197.4c0,0.3-0.2,0.4-0.5,0.3C72.4,197.5,72.6,197.4,72.8,197.4z"/>
<path class="st1" d="M391.6,286.4c-0.1,0.2-0.2,0.1-0.4,0C391.4,286.2,391.5,286.2,391.6,286.4z"/>
<path class="st1" d="M414.4,271.2c-0.1,0.1-0.2,0.1-0.3,0C414.2,271.1,414.3,271,414.4,271.2z"/>
<path class="st2" d="M70.5,199.5c0,0.2-0.2,0.4-0.4,0.4C70.2,199.6,70.3,199.5,70.5,199.5z"/>
<path class="st2" d="M68.8,201.2c0,0.2-0.1,0.3-0.3,0.3C68.6,201.4,68.7,201.3,68.8,201.2z"/>
<path class="st1" d="M283.2,211.8L283.2,211.8c-0.1,0-0.1,0-0.1-0.1C283.1,211.8,283.2,211.8,283.2,211.8L283.2,211.8z"/>
<path class="st1" d="M405,237.8c0.1,0,0.1,0,0.2,0c0,0-0.1,0.1-0.1,0.1C405,238,405,237.9,405,237.8L405,237.8z"/>
<path class="st3" d="M189.3,211.3c0,0.1,0,0.2-0.1,0.1C189.1,211.3,189.1,211.2,189.3,211.3z"/>
<path class="st2" d="M185.7,192.5c0-0.1,0-0.1,0-0.2C185.8,192.3,185.9,192.4,185.7,192.5z"/>
<path class="st1" d="M222.4,223.1c-0.4,0.1-0.8,0.1-1.2-0.1C221.6,222.8,222,222.9,222.4,223.1z"/>
<path class="st1" d="M236.8,237.2c-0.1-0.5-0.1-0.9,0.5-1C237.4,236.6,237.4,237,236.8,237.2z"/>
<path class="st1" d="M214.6,223c-0.2,0.1-0.4,0.1-0.6,0C214.2,222.9,214.4,222.9,214.6,223z"/>
<path class="st1" d="M232.6,326.7c0.5,0.4,0.4,1,0.6,1.5c0.6,1.3,1.6,1.9,2.9,2.4C233.9,330.9,232.8,328.9,232.6,326.7L232.6,326.7z
	"/>
<path class="st1" d="M239.5,329.6c0.4-0.4,0.8-0.7,1.2-1.1C240.7,329.3,240.2,329.6,239.5,329.6z"/>
<path class="st1" d="M240.7,328.5c0.1-0.1,0.2-0.2,0.3-0.4C241,328.4,240.9,328.5,240.7,328.5z"/>
<path class="st1" d="M241.4,327.7c0.1-0.1,0.2-0.2,0.2-0.3C241.5,327.5,241.4,327.6,241.4,327.7z"/>
<path class="st1" d="M239.3,329.8c0-0.2,0.1-0.2,0.2-0.2C239.4,329.7,239.4,329.8,239.3,329.8z"/>
</svg>
